<?xml version="1.0" encoding="iso-8859-1"?>
<!-- Generator: Adobe Illustrator 19.0.0, SVG Export Plug-In . SVG Version: 6.00 Build 0)  -->
<svg version="1.1" id="Capa_1" xmlns="http://www.w3.org/2000/svg" xmlns:xlink="http://www.w3.org/1999/xlink" x="0px" y="0px"
	 viewBox="0 0 512.045 512.045" style="enable-background:new 0 0 512.045 512.045;" xml:space="preserve">
<g>
	<g>
		<path style="fill:#FFA800;" d="M294.252,466.091c0.085,1.109,0.171,2.133,0.171,3.243c-1.23,20.005-18.389,35.258-38.4,34.133
			c-20.011,1.124-37.17-14.129-38.4-34.133c0-1.109,0.085-2.133,0.171-3.243"/>
		<path style="fill:#FFA800;" d="M277.356,8.533h-4.267c8.875,0.567,15.63,8.188,15.127,17.067v34.133
			c0,17.752,13.617,40.601,31.413,62.893c13.777,17.257,48.947,32.258,65.108,46.644c7.461,6.653,14.327,13.944,20.519,21.79
			c0.076,0.085,0.151,0.085,0.151,0.171l0.076,0.085c24.953,31.839,38.437,71.164,38.272,111.616
			c0.802,44.373-16.472,87.165-47.854,118.546s-74.173,48.655-118.546,47.854c-44.373,0.802-87.165-16.472-118.546-47.854
			s-48.655-74.173-47.854-118.546c-0.165-40.452,13.319-79.777,38.272-111.616l0.076-0.085c0-0.085,0.076-0.085,0.151-0.171
			c6.193-7.847,13.058-15.138,20.519-21.791c16.536-14.221,31.829-29.826,45.714-46.644c17.796-22.292,31.413-45.141,31.413-62.893
			V25.6c-0.503-8.879,6.252-16.5,15.127-17.067H277.356z"/>
	</g>
	<path style="fill:#FFFFFF;" d="M234.69,8.533h15.127c8.875,0.567,15.63,8.188,15.127,17.067v34.133
		c0,17.752,13.617,40.601,31.413,62.893c13.885,16.819,29.178,32.423,45.714,46.644c7.461,6.653,14.327,13.944,20.519,21.79
		c0.076,0.085,0.151,0.085,0.151,0.171l0.076,0.085c24.953,31.839,38.437,71.164,38.272,111.616
		c0.802,44.373-16.472,87.165-47.854,118.546s-74.173,48.655-118.546,47.854c-44.373,0.802-87.165-16.472-118.546-47.854
		S67.488,347.306,68.29,302.933c-0.165-40.452,13.319-79.777,38.272-111.616l0.076-0.085c0-0.085,0.076-0.085,0.151-0.171
		c6.193-7.847,13.058-15.138,20.519-21.791c16.16-14.387,51.331-29.387,65.108-46.644c17.796-22.292,31.413-45.141,31.413-62.893
		V25.6c-0.503-8.879,6.252-16.5,15.127-17.067H234.69z"/>
	<path style="fill:#FFE100;" d="M256.023,8.533h14.739c8.76,0.688,15.333,8.3,14.739,17.067v34.133
		c0,17.752,13.267,40.601,30.608,62.893c13.496,16.784,28.397,32.389,44.542,46.644c7.285,6.669,13.974,13.96,19.993,21.791
		c0.074,0.085,0.147,0.085,0.147,0.171l0.074,0.085c24.395,32.077,37.505,71.317,37.291,111.616
		c0,96.597-72.592,166.4-162.133,166.4S93.89,399.531,93.89,302.933c-0.214-40.299,12.896-79.539,37.291-111.616l0.074-0.085
		c0-0.085,0.074-0.085,0.147-0.171c6.019-7.83,12.708-15.122,19.993-21.791c16.145-14.255,31.046-29.86,44.542-46.644
		c17.34-22.292,30.608-45.141,30.608-62.893V25.6c-0.594-8.767,5.979-16.379,14.739-17.067H256.023z"/>
	<g>
		<path d="M256.023,477.867c-97.817,0-177.321-59.008-193.342-143.492c-0.597-3.007,0.465-6.103,2.782-8.11
			c2.317-2.007,5.532-2.618,8.424-1.599c2.891,1.019,5.014,3.51,5.561,6.526C93.919,407.5,166.527,460.8,256.023,460.8
			c102.163,0,179.2-67.867,179.2-157.867c-0.208-39.093-14.766-76.749-40.908-105.817c-0.104-0.108-0.208-0.208-0.304-0.317
			c-6.756-7.574-14.159-14.544-22.125-20.833c-18.85-14.371-36.455-30.305-52.629-47.633c-25.325-28.109-37.633-50.55-37.633-68.6
			V25.6c-0.005-4.711-3.822-8.529-8.533-8.533h-34.133c-4.711,0.005-8.529,3.822-8.533,8.533v34.133
			c0,18.05-12.308,40.492-37.633,68.6c-16.174,17.329-33.781,33.263-52.634,47.633c-7.943,6.272-15.325,13.223-22.063,20.775
			l-0.321,0.333l-0.188,0.192c-17.632,19.762-30.152,43.545-36.463,69.267c-1.105,4.582-5.714,7.4-10.296,6.296
			c-4.582-1.105-7.4-5.714-6.296-10.296c7.016-28.567,20.946-54.972,40.563-76.891h0.004c0.177-0.21,0.364-0.41,0.563-0.6
			c7.316-8.164,15.32-15.684,23.925-22.475c18.091-13.773,34.991-29.043,50.521-45.65c27.483-30.508,33.25-47.933,33.25-57.183V25.6
			c0.015-14.132,11.468-25.585,25.6-25.6h34.133c14.132,0.015,25.585,11.468,25.6,25.6v34.133c0,9.25,5.767,26.675,33.25,57.183
			c15.53,16.606,32.428,31.876,50.517,45.65c8.607,6.794,16.615,14.313,23.938,22.475c0.296,0.29,0.571,0.602,0.821,0.933
			c28.804,32.173,44.837,73.776,45.075,116.958C452.29,402.658,367.915,477.867,256.023,477.867z"/>
		<path d="M68.29,307.2c-2.273-0.043-4.442-0.959-6.059-2.558c-1.617-1.563-2.513-3.727-2.475-5.975
			c-0.02-3.467,2.059-6.601,5.261-7.931c3.202-1.329,6.89-0.59,9.331,1.872c1.558,1.636,2.441,3.8,2.475,6.059
			c0.029,1.119-0.205,2.229-0.683,3.242C74.802,305.071,71.723,307.147,68.29,307.2z"/>
		<path d="M256.023,512c-24.711,1.092-45.672-17.963-46.933-42.667c0-1.308,0.087-2.525,0.192-3.825
			c0.424-4.678,4.491-8.171,9.179-7.883c2.253,0.169,4.347,1.228,5.818,2.944s2.199,3.945,2.024,6.198
			c-0.075,0.933-0.146,1.717-0.146,2.567c1.283,15.263,14.587,26.667,29.867,25.6c15.28,1.067,28.584-10.337,29.867-25.6
			c0-0.85-0.071-1.633-0.137-2.483l17.008-1.434l-8.508,0.675l8.513-0.583c0.104,1.3,0.192,2.517,0.192,3.825
			C301.695,494.037,280.734,513.092,256.023,512z"/>
		<path d="M256.023,42.667c-2.263,0.001-4.434-0.898-6.035-2.499c-1.6-1.6-2.499-3.771-2.499-6.035V25.6
			c-0.005-4.711-3.822-8.529-8.533-8.533c-4.713,0-8.533-3.821-8.533-8.533S234.243,0,238.956,0
			c14.132,0.015,25.585,11.468,25.6,25.6v8.533c0.001,2.263-0.898,4.434-2.499,6.035C260.457,41.768,258.286,42.667,256.023,42.667z
			"/>
		<path d="M256.023,42.667c-2.263,0.001-4.434-0.898-6.035-2.499c-1.6-1.6-2.499-3.771-2.499-6.035V25.6
			c0.015-14.132,11.468-25.585,25.6-25.6c4.713,0,8.533,3.821,8.533,8.533s-3.821,8.533-8.533,8.533
			c-4.711,0.005-8.529,3.822-8.533,8.533v8.533c0.001,2.263-0.898,4.434-2.499,6.035C260.457,41.768,258.286,42.667,256.023,42.667z
			"/>
		<path d="M221.885,443.733c-2.008,0.001-3.951-0.707-5.488-2c-27.767-23.333-45.708-76.55-45.708-135.575
			c0-59.034,17.942-112.25,45.712-135.575c2.333-1.969,5.541-2.542,8.411-1.501c2.87,1.041,4.966,3.536,5.495,6.542
			c0.529,3.007-0.589,6.067-2.931,8.025c-23.696,19.908-39.621,69.142-39.621,122.508c0,53.358,15.925,102.592,39.625,122.508
			c2.747,2.308,3.757,6.087,2.527,9.458C228.679,441.495,225.473,443.736,221.885,443.733z"/>
		<path d="M179.214,432.1c-1.326,0-2.633-0.311-3.817-0.908c-44.329-22.233-72.975-73.592-72.975-130.85
			c0-57.267,28.646-108.625,72.975-130.85c2.724-1.369,5.972-1.18,8.52,0.496s4.006,4.584,3.826,7.628s-1.97,5.76-4.696,7.126
			c-38.612,19.359-63.558,64.733-63.558,115.6c0,50.859,24.95,96.233,63.558,115.6c3.538,1.773,5.392,5.746,4.478,9.596
			S183.172,432.105,179.214,432.1L179.214,432.1z"/>
		<path d="M290.16,443.733c-3.587,0.003-6.793-2.239-8.023-5.609c-1.229-3.37-0.219-7.15,2.527-9.457
			c23.7-19.917,39.625-69.15,39.625-122.508c0-53.367-15.925-102.6-39.621-122.508c-2.343-1.958-3.46-5.019-2.931-8.025
			c0.529-3.007,2.625-5.502,5.495-6.542s6.078-0.468,8.411,1.501c27.771,23.325,45.713,76.542,45.713,135.575
			c0,59.025-17.942,112.242-45.708,135.575C294.112,443.026,292.168,443.734,290.16,443.733L290.16,443.733z"/>
		<path d="M332.831,432.1c-3.957,0.005-7.398-2.712-8.311-6.562c-0.913-3.85,0.941-7.823,4.478-9.596
			c38.608-19.367,63.558-64.742,63.558-115.6c0-50.867-24.946-96.242-63.558-115.6c-2.726-1.365-4.517-4.082-4.696-7.126
			c-0.179-3.044,1.279-5.952,3.827-7.628c2.547-1.676,5.795-1.865,8.52-0.496c44.329,22.225,72.975,73.583,72.975,130.85
			c0,57.259-28.646,108.617-72.975,130.85C335.464,431.789,334.157,432.1,332.831,432.1L332.831,432.1z"/>
		<path d="M256.023,443.733c-2.263,0.001-4.434-0.898-6.035-2.499c-1.6-1.6-2.499-3.771-2.499-6.035v-256
			c0-4.713,3.82-8.533,8.533-8.533s8.533,3.821,8.533,8.533v256c0.001,2.263-0.898,4.434-2.499,6.035
			S258.286,443.734,256.023,443.733z"/>
	</g>
</g>
<g>
</g>
<g>
</g>
<g>
</g>
<g>
</g>
<g>
</g>
<g>
</g>
<g>
</g>
<g>
</g>
<g>
</g>
<g>
</g>
<g>
</g>
<g>
</g>
<g>
</g>
<g>
</g>
<g>
</g>
</svg>
