<?xml version="1.0" encoding="iso-8859-1"?>
<!-- Generator: Adobe Illustrator 18.0.0, SVG Export Plug-In . SVG Version: 6.00 Build 0)  -->
<!DOCTYPE svg PUBLIC "-//W3C//DTD SVG 1.1//EN" "http://www.w3.org/Graphics/SVG/1.1/DTD/svg11.dtd">
<svg version="1.1" id="Capa_1" xmlns="http://www.w3.org/2000/svg" xmlns:xlink="http://www.w3.org/1999/xlink" x="0px" y="0px"
	 viewBox="0 0 56.367 56.367" style="enable-background:new 0 0 56.367 56.367;" xml:space="preserve">
<path d="M50.683,28.5c0-11.448-8.712-21.084-20-22.338V1c0-0.347-0.18-0.668-0.475-0.851c-0.296-0.182-0.663-0.199-0.973-0.044l-4,2
	C24.897,2.275,24.683,2.621,24.683,3v3.285C13.593,8.025,5.317,17.949,5.696,29.268c0.325,9.782,7.129,18.144,16.225,20.82
	c-0.33,0.209-0.521,0.601-0.452,1.01c0.081,0.489,0.505,0.835,0.985,0.835c0.055,0,0.109-0.004,0.165-0.014l3.922-0.654
	l-1.994,1.994c-0.391,0.391-0.391,1.023,0,1.414c0.195,0.195,0.451,0.293,0.707,0.293s0.512-0.098,0.707-0.293l2.493-2.493v3.186
	c0,0.552,0.447,1,1,1s1-0.448,1-1v-3.186l2.493,2.493c0.195,0.195,0.451,0.293,0.707,0.293s0.512-0.098,0.707-0.293
	c0.391-0.391,0.391-1.023,0-1.414l-1.865-1.865l3.762,0.752c0.066,0.013,0.132,0.02,0.197,0.02c0.467,0,0.885-0.329,0.979-0.804
	c0.108-0.542-0.243-1.068-0.784-1.177l-1.493-0.299c3.331-1.082,6.387-2.929,8.935-5.477C48.342,40.161,50.683,34.51,50.683,28.5z
	 M22.291,49.947c-0.031,0.005-0.054,0.024-0.084,0.032c-3.331-2.689-6.189-6.527-8.008-10.987
	c-2.869-7.034-2.68-14.299,0.533-20.455c0.256-0.49,0.856-0.681,1.35-0.424c0.489,0.256,0.679,0.86,0.424,1.349
	c-2.937,5.627-3.098,12.294-0.455,18.775c1.816,4.452,4.826,8.326,8.242,10.82c-4.16-7.352-6.392-21.735-3.25-32.341
	c0.156-0.529,0.713-0.829,1.243-0.675c0.529,0.157,0.831,0.713,0.675,1.243c-1.731,5.842-1.858,13.448-0.35,20.868
	c0.946,4.654,2.444,8.603,4.109,11.057L22.291,49.947z M29.455,48.767c-0.029,0-0.056,0.014-0.084,0.016
	c-0.027,0.002-0.053-0.007-0.08-0.003l-1.836,0.306V13c0-0.552,0.447-1,1-1s1,0.448,1,1V48.767z M34.899,49.836l-4.499-0.9
	c4.086-6.184,7.214-20.82,4.004-31.652c-0.156-0.53,0.146-1.086,0.675-1.243c0.53-0.155,1.087,0.146,1.243,0.675
	c3.117,10.52,0.717,24.894-3.592,32.292c3.541-2.569,6.661-6.567,8.535-11.163c2.599-6.372,2.455-12.901-0.406-18.383
	c-0.255-0.489-0.065-1.093,0.424-1.349c0.492-0.256,1.095-0.065,1.35,0.424c3.137,6.012,3.31,13.137,0.484,20.063
	C41.287,43.09,38.322,47.05,34.899,49.836z"/>
<g>
</g>
<g>
</g>
<g>
</g>
<g>
</g>
<g>
</g>
<g>
</g>
<g>
</g>
<g>
</g>
<g>
</g>
<g>
</g>
<g>
</g>
<g>
</g>
<g>
</g>
<g>
</g>
<g>
</g>
</svg>
