<?xml version="1.0" encoding="iso-8859-1"?>
<!-- Generator: Adobe Illustrator 19.0.0, SVG Export Plug-In . SVG Version: 6.00 Build 0)  -->
<svg version="1.1" id="Capa_1" xmlns="http://www.w3.org/2000/svg" xmlns:xlink="http://www.w3.org/1999/xlink" x="0px" y="0px"
	 viewBox="0 0 512.033 512.033" style="enable-background:new 0 0 512.033 512.033;" xml:space="preserve">
<g>
	<g>
		<g>
			<path d="M407.208,185.975c-0.25-0.331-0.524-0.643-0.821-0.933c-7.322-8.162-15.331-15.681-23.938-22.475
				c-18.089-13.774-34.987-29.044-50.517-45.65c-27.483-30.508-33.25-47.933-33.25-57.183V25.6
				c-0.015-14.132-11.468-25.585-25.6-25.6H238.95c-14.132,0.015-25.585,11.468-25.6,25.6v34.133c0,9.25-5.767,26.675-33.25,57.183
				c-15.53,16.607-32.43,31.877-50.521,45.65c-8.605,6.793-16.611,14.312-23.929,22.475c-0.196,0.192-0.383,0.392-0.558,0.6h-0.004
				c-28.993,32.21-45.129,73.956-45.338,117.292c0,85.273,61.716,152.573,149.551,170.302c3.411,22.942,23.538,39.643,46.716,38.765
				c23.178,0.879,43.304-15.823,46.716-38.765c87.835-17.729,149.551-85.029,149.551-170.302
				C452.045,259.751,436.012,218.148,407.208,185.975z M256.017,494.933c-12.589,0.513-24.108-7.04-28.657-18.79
				c19.036,2.297,38.279,2.297,57.315,0C280.125,487.893,268.605,495.446,256.017,494.933z M256.017,460.8
				c-102.163,0-179.2-67.867-179.2-157.867c0.187-39.026,14.692-76.626,40.763-105.667l0.192-0.192l0.317-0.333
				c6.737-7.552,14.119-14.503,22.063-20.775c18.852-14.37,36.459-30.304,52.634-47.633c25.325-28.109,37.633-50.55,37.633-68.6
				V25.6c0-4.713,3.82-8.533,8.533-8.533s8.533,3.82,8.533,8.533v8.533c0,4.713,3.82,8.533,8.533,8.533s8.533-3.82,8.533-8.533V25.6
				c0-4.713,3.82-8.533,8.533-8.533s8.533,3.82,8.533,8.533v34.133c0,18.05,12.308,40.492,37.633,68.6
				c16.174,17.328,33.779,33.262,52.629,47.633c7.966,6.289,15.369,13.26,22.125,20.833c0.096,0.108,0.2,0.208,0.304,0.317
				c26.142,29.068,40.7,66.723,40.908,105.817C435.217,392.933,358.179,460.8,256.017,460.8z"/>
			<path d="M227.371,183.65c2.343-1.958,3.46-5.018,2.931-8.025c-0.529-3.007-2.625-5.502-5.495-6.542s-6.078-0.468-8.411,1.501
				c-27.771,23.325-45.713,76.542-45.713,135.575c0,59.025,17.942,112.242,45.708,135.575c2.334,1.962,5.538,2.53,8.404,1.489
				c2.866-1.04,4.96-3.531,5.492-6.533c0.532-3.002-0.578-6.061-2.912-8.023c-23.7-19.917-39.625-69.15-39.625-122.508
				C187.75,252.792,203.675,203.558,227.371,183.65z"/>
			<path d="M183.042,415.942c-38.608-19.367-63.558-64.742-63.558-115.6c0-50.867,24.946-96.242,63.558-115.6
				c2.726-1.365,4.517-4.082,4.696-7.126c0.179-3.044-1.279-5.952-3.826-7.628c-2.547-1.676-5.795-1.865-8.52-0.496
				c-44.329,22.225-72.975,73.583-72.975,130.85c0,57.258,28.646,108.617,72.975,130.85c2.724,1.369,5.972,1.18,8.52-0.496
				s4.006-4.584,3.826-7.628C187.558,420.024,185.768,417.307,183.042,415.942z"/>
			<path d="M295.637,170.583c-2.333-1.969-5.541-2.542-8.411-1.501c-2.87,1.041-4.966,3.536-5.495,6.542
				c-0.529,3.007,0.589,6.067,2.931,8.025c23.696,19.908,39.621,69.142,39.621,122.508c0,53.358-15.925,102.592-39.625,122.508
				c-2.334,1.962-3.444,5.02-2.912,8.023c0.532,3.002,2.625,5.493,5.492,6.533c2.866,1.04,6.07,0.473,8.404-1.489
				c27.767-23.333,45.708-76.55,45.708-135.575C341.35,247.125,323.408,193.908,295.637,170.583z"/>
			<path d="M336.642,169.492c-2.724-1.369-5.972-1.18-8.52,0.496s-4.006,4.584-3.826,7.628c0.179,3.044,1.97,5.76,4.696,7.126v0
				c38.612,19.359,63.558,64.733,63.558,115.6c0,50.859-24.95,96.233-63.558,115.6c-2.726,1.365-4.517,4.082-4.696,7.126
				c-0.179,3.044,1.279,5.952,3.826,7.628c2.547,1.676,5.795,1.865,8.52,0.496c44.329-22.233,72.975-73.592,72.975-130.85
				C409.617,243.075,380.971,191.717,336.642,169.492z"/>
			<path d="M256.017,170.667c-4.713,0-8.533,3.82-8.533,8.533v256c-0.001,2.263,0.898,4.434,2.499,6.035
				c1.6,1.6,3.771,2.499,6.035,2.499c2.263,0.001,4.434-0.898,6.035-2.499c1.6-1.6,2.499-3.771,2.499-6.035v-256
				C264.55,174.487,260.729,170.667,256.017,170.667z"/>
		</g>
	</g>
</g>
<g>
</g>
<g>
</g>
<g>
</g>
<g>
</g>
<g>
</g>
<g>
</g>
<g>
</g>
<g>
</g>
<g>
</g>
<g>
</g>
<g>
</g>
<g>
</g>
<g>
</g>
<g>
</g>
<g>
</g>
</svg>
