<?xml version="1.0" encoding="iso-8859-1"?>
<!-- Generator: Adobe Illustrator 18.1.1, SVG Export Plug-In . SVG Version: 6.00 Build 0)  -->
<svg version="1.1" id="Capa_1" xmlns="http://www.w3.org/2000/svg" xmlns:xlink="http://www.w3.org/1999/xlink" x="0px" y="0px"
	 viewBox="0 0 507.07 507.07" style="enable-background:new 0 0 507.07 507.07;" xml:space="preserve">
<g>
	<g>
		<path style="fill:#010002;" d="M114.588,6.678c-6.901-15.062-29.06-1.983-22.207,12.981
			c17.631,38.464,53.437,63.785,86.325,88.488c34.66,26.02,78.457,55.851,82.042,102.209
			c-31.222-51.763-80.66-84.651-133.097-113.459c-14.542-7.99-27.515,14.217-12.981,22.207
			c51.478,28.279,100.047,59.753,128.789,112.719c0.447,0.821,1.008,1.398,1.536,2.048l2.658-13.339l3.796-19.07l10.9,16.095
			l5.601,8.275c3.341-3.251,7.934-6.064,14.095-7.519c1.357-0.317,2.682-0.48,3.951-0.48c0.244,0,0.455,0.065,0.691,0.073
			C288.971,113.056,152.671,89.776,114.588,6.678z"/>
		<path style="fill:#010002;" d="M286.004,225.954c-0.512,0-1.105,0.098-1.715,0.219c-0.13,0.024-0.236,0.016-0.366,0.049
			c-4.341,1.024-7.389,2.91-9.665,4.975c-4.885,4.438-5.844,9.787-5.844,9.787l-4.902-7.243l-7.877-11.632l-3.195,16.021
			l-2.268,11.396c-3.495-7.974-15.599-8.933-21.207-8.933c-1.772,0-2.902,0.098-2.902,0.098l12.526,26.304
			c-1.227,0.52-2.479,1.057-3.731,1.618c-1.227,0.545-2.455,1.081-3.707,1.666c-44.016,20.484-99.112,63.183-99.112,109.134
			c0,55.421,47.585,101.697,111.166,113.207l6.901,9.779c0,0,52.291,10.51,61.444,0c3.333-3.829,4.202-8.112,4.007-12.03
			c58.136-14.518,100.429-58.688,100.429-110.947c0-50.519-65.524-97.104-111.166-114.556c-1.284-0.488-2.56-0.975-3.812-1.422
			c-1.349-0.48-2.658-0.91-3.967-1.333c3.609-5.601,4.422-17.078,4.544-19.403c-0.569,6.072-13.64,7.34-13.64,7.34
			S296.53,225.954,286.004,225.954z"/>
	</g>
</g>
<g>
</g>
<g>
</g>
<g>
</g>
<g>
</g>
<g>
</g>
<g>
</g>
<g>
</g>
<g>
</g>
<g>
</g>
<g>
</g>
<g>
</g>
<g>
</g>
<g>
</g>
<g>
</g>
<g>
</g>
</svg>
