<?xml version="1.0" encoding="iso-8859-1"?>
<!-- Generator: Adobe Illustrator 18.0.0, SVG Export Plug-In . SVG Version: 6.00 Build 0)  -->
<!DOCTYPE svg PUBLIC "-//W3C//DTD SVG 1.1//EN" "http://www.w3.org/Graphics/SVG/1.1/DTD/svg11.dtd">
<svg version="1.1" id="Capa_1" xmlns="http://www.w3.org/2000/svg" xmlns:xlink="http://www.w3.org/1999/xlink" x="0px" y="0px"
	 viewBox="0 0 56.6 56.6" style="enable-background:new 0 0 56.6 56.6;" xml:space="preserve">
<path d="M30.8,6.162V1c0-0.347-0.18-0.668-0.475-0.851c-0.296-0.183-0.663-0.199-0.973-0.044l-4,2C25.013,2.275,24.8,2.621,24.8,3
	v3.285C13.71,8.026,5.434,17.95,5.813,29.269c0.326,9.803,7.159,18.177,16.284,20.834l-0.462,0.077
	c-0.545,0.091-0.913,0.606-0.822,1.151c0.081,0.489,0.505,0.835,0.985,0.835c0.055,0,0.109-0.004,0.165-0.014l3.923-0.654
	l-1.994,1.994c-0.391,0.391-0.391,1.023,0,1.414c0.195,0.195,0.451,0.293,0.707,0.293s0.512-0.098,0.707-0.293l2.493-2.493V55.6
	c0,0.552,0.447,1,1,1s1-0.448,1-1v-3.186l2.493,2.493C32.488,55.103,32.744,55.2,33,55.2s0.512-0.098,0.707-0.293
	c0.391-0.391,0.391-1.023,0-1.414l-1.865-1.865l3.761,0.752c0.066,0.013,0.133,0.02,0.197,0.02c0.467,0,0.885-0.329,0.979-0.804
	c0.108-0.542-0.243-1.068-0.784-1.177l-1.452-0.29c3.383-0.971,6.508-2.738,9.159-5.228C48.213,40.664,50.8,34.686,50.8,28.5
	C50.8,17.053,42.088,7.416,30.8,6.162z M42.333,43.444c-2.03,1.907-4.368,3.342-6.891,4.279c3.482-2.688,6.41-6.437,8.111-10.609
	c2.516-6.167,2.23-12.764-0.803-18.576c-0.255-0.49-0.857-0.681-1.35-0.424c-0.489,0.256-0.679,0.86-0.424,1.349
	c3.533,6.771,2.344,12.925,0.725,16.896c-1.868,4.581-5.323,8.604-9.326,11.067c4.533-6.813,7.152-20.288,4.064-30.709
	c-0.156-0.529-0.713-0.831-1.243-0.675c-0.529,0.157-0.831,0.713-0.675,1.243c3.313,11.182-0.286,24.935-4.722,30.272V13
	c0-0.552-0.447-1-1-1s-1,0.448-1,1v34.556c-4.435-5.336-8.035-19.09-4.722-30.272c0.156-0.53-0.146-1.086-0.675-1.243
	c-0.53-0.155-1.087,0.146-1.243,0.675c-3.088,10.421-0.469,23.897,4.064,30.709c-4.002-2.463-7.457-6.486-9.326-11.067
	c-1.619-3.971-2.809-10.125,0.725-16.896c0.255-0.489,0.065-1.093-0.424-1.349c-0.493-0.256-1.094-0.065-1.35,0.424
	c-3.033,5.812-3.318,12.409-0.803,18.576c1.815,4.451,5.025,8.424,8.816,11.137C14.441,45.902,8.112,38.211,7.811,29.203
	C7.458,18.616,15.409,9.369,25.915,8.151C26.419,8.093,26.8,7.665,26.8,7.158V3.618l2-1v4.458c0,0.525,0.406,0.961,0.931,0.998
	C40.424,8.814,48.8,17.786,48.8,28.5C48.8,34.219,46.503,39.526,42.333,43.444z"/>
<g>
</g>
<g>
</g>
<g>
</g>
<g>
</g>
<g>
</g>
<g>
</g>
<g>
</g>
<g>
</g>
<g>
</g>
<g>
</g>
<g>
</g>
<g>
</g>
<g>
</g>
<g>
</g>
<g>
</g>
</svg>
