<?xml version="1.0" encoding="iso-8859-1"?>
<!-- Generator: Adobe Illustrator 19.0.0, SVG Export Plug-In . SVG Version: 6.00 Build 0)  -->
<svg version="1.1" id="Capa_1" xmlns="http://www.w3.org/2000/svg" xmlns:xlink="http://www.w3.org/1999/xlink" x="0px" y="0px"
	 viewBox="0 0 512 512" style="enable-background:new 0 0 512 512;" xml:space="preserve">
<g>
	<g>
		<g>
			<path d="M225.296,491.868C230.61,504.093,242.67,512,256,512s25.39-7.907,30.704-20.132
				C266.309,494.33,245.691,494.33,225.296,491.868z"/>
			<path d="M404.17,192.911c-0.112-0.116-0.223-0.223-0.326-0.339c-7.239-8.115-15.171-15.583-23.705-22.321
				c-20.196-15.398-39.059-32.47-56.388-51.035c-27.134-30.116-40.321-54.161-40.321-73.5V9.143c0-5.049-4.093-9.143-9.143-9.143
				s-9.143,4.093-9.143,9.143v9.143c0,5.049-4.093,9.143-9.143,9.143s-9.143-4.093-9.143-9.143V9.143
				c0-5.049-4.093-9.143-9.143-9.143c-5.049,0-9.143,4.093-9.143,9.143v36.571c0,19.339-13.188,43.384-40.321,73.5
				c-17.33,18.567-36.194,35.639-56.393,51.035c-8.511,6.719-16.42,14.167-23.638,22.259l-0.339,0.357l-0.205,0.205
				C79.741,224.186,64.2,264.472,64,306.286c0,96.429,82.54,169.143,192,169.143s192-72.714,192-169.143
				C447.777,264.4,432.179,224.054,404.17,192.911z M181.888,439.634c-1.086,2.169-2.99,3.816-5.292,4.58s-4.813,0.581-6.98-0.508
				c-47.495-23.822-78.187-78.849-78.187-140.197c0-61.357,30.692-116.384,78.188-140.197c2.919-1.467,6.399-1.264,9.128,0.532
				s4.292,4.912,4.1,8.173c-0.192,3.261-2.11,6.172-5.031,7.635c-41.371,20.741-68.098,69.357-68.098,123.857
				c0,54.491,26.732,103.107,68.098,123.857c2.167,1.086,3.815,2.989,4.579,5.29C183.156,434.957,182.975,437.467,181.888,439.634z
				 M225.312,441c1.857,1.56,3.017,3.795,3.227,6.211c0.209,2.416-0.55,4.817-2.11,6.673l0,0c-3.251,3.864-9.017,4.363-12.884,1.116
				c-29.75-25-48.973-82.018-48.973-145.259c0-63.25,19.223-120.268,48.978-145.259c2.5-2.11,5.937-2.723,9.012-1.608
				c3.075,1.115,5.321,3.788,5.888,7.01s-0.631,6.501-3.141,8.599c-25.388,21.33-42.451,74.08-42.451,131.259
				C182.857,366.911,199.92,419.661,225.312,441z M265.143,448c0,5.049-4.093,9.143-9.143,9.143s-9.143-4.093-9.143-9.143V173.714
				c0-5.049,4.093-9.143,9.143-9.143s9.143,4.093,9.143,9.143V448z M298.455,455c-3.866,3.25-9.634,2.75-12.884-1.116
				c-3.25-3.866-2.75-9.634,1.116-12.884c25.393-21.339,42.455-74.089,42.455-131.259c0-57.179-17.063-109.929-42.451-131.259
				c-2.51-2.098-3.708-5.377-3.141-8.599s2.812-5.895,5.888-7.01s6.512-0.501,9.012,1.608
				c29.755,24.991,48.978,82.009,48.978,145.259C347.429,372.982,328.205,430,298.455,455z M342.384,443.705L342.384,443.705
				c-2.919,1.467-6.399,1.264-9.128-0.532s-4.292-4.912-4.1-8.173c0.192-3.261,2.11-6.172,5.031-7.635
				c41.366-20.75,68.098-69.366,68.098-123.857c0-54.5-26.728-103.116-68.098-123.857c-2.921-1.463-4.839-4.373-5.031-7.635
				c-0.192-3.261,1.371-6.377,4.1-8.173s6.209-1.999,9.128-0.532c47.496,23.813,78.188,78.839,78.188,140.196
				C420.571,364.857,389.88,419.884,342.384,443.705z"/>
		</g>
	</g>
</g>
<g>
</g>
<g>
</g>
<g>
</g>
<g>
</g>
<g>
</g>
<g>
</g>
<g>
</g>
<g>
</g>
<g>
</g>
<g>
</g>
<g>
</g>
<g>
</g>
<g>
</g>
<g>
</g>
<g>
</g>
</svg>
