<?xml version="1.0" encoding="iso-8859-1"?>
<!-- Generator: Adobe Illustrator 16.0.0, SVG Export Plug-In . SVG Version: 6.00 Build 0)  -->
<!DOCTYPE svg PUBLIC "-//W3C//DTD SVG 1.1//EN" "http://www.w3.org/Graphics/SVG/1.1/DTD/svg11.dtd">
<svg version="1.1" id="Capa_1" xmlns="http://www.w3.org/2000/svg" xmlns:xlink="http://www.w3.org/1999/xlink" x="0px" y="0px"
	 width="951.244px" height="951.243px" viewBox="0 0 951.244 951.243" style="enable-background:new 0 0 951.244 951.243;"
	 xml:space="preserve">
<g>
	<path d="M653.051,355.086c-91.899-21.5-126.899-78.3-135.7-161.7c-4.8-46.4-6.699-106-9.3-158.6
		c-0.899-17.9-15.899-33.4-33.399-34.7c-17.5-1.3-32.7,12.2-33.7,30.1c-1.4,24-2.601,49.8-4.3,66.8c-5,50.9-7.601,102.3-16.4,152.6
		c-9,51.6-39.6,84-94.2,96.6c-78.8,18.2-150.7,53-208.2,112.2c-139.6,144-90.3,365,93.7,440.301c17.4,7.1,22.5-0.601,12.1-16.301
		c-102.7-155.3-77.1-363.399,56.5-456.9c15.4-10.8,24.9-11,19.8-2.8c-3.5,5.6-6.4,10.199-9.5,14.699
		c-54.4,78.101-81.1,164.601-77,259.601c0.1,3.2,0.8,6.399,1.3,9.6c3.5,25.9,7.5,51.8,15.5,76.7c7.5,23.4,18.6,45.6,32.9,65.7
		c13.9,19.5,30.7,37,49.6,51.7c15.7,12.1,121.6,76.399,137.5,39c5.3-12.301,23.1-111.5,25.6-133c6.4-56.9,10.4-125.7,10.6-183
		c0-9.301-1-22.5-2.5-33.4c-0.4-4-1.101-8.4,3.2-7.3c2.5,1.3,3.5,4.2,4.3,7.3c13.2,50.1,21.6,103.9,24.5,155.5
		c1.2,22.3,1.399,44.7,2.3,67c1.2,28.9,2.9,57.8,4.5,86.7c0.5,8.3,0.9,16.6,1.4,24.899c0.8,13.7,15.8,22.7,33,17.5
		c128.399-38.899,204.899-174.399,176.899-324c-2.2-11.8-4.8-23.6-7.1-35.399c-1-5-2-9.9-3-14.9c-1.7-8.2,4.899-1.8,13,15.101
		c45.7,95,44.3,190.899,2.8,288c-7.4,17.3,0.5,27.3,17.8,20.1c127.3-52.9,193.2-215.3,134.601-345.1
		C845.152,441.586,759.152,379.987,653.051,355.086z"/>
</g>
<g>
</g>
<g>
</g>
<g>
</g>
<g>
</g>
<g>
</g>
<g>
</g>
<g>
</g>
<g>
</g>
<g>
</g>
<g>
</g>
<g>
</g>
<g>
</g>
<g>
</g>
<g>
</g>
<g>
</g>
</svg>
