<?xml version="1.0" encoding="iso-8859-1"?>
<!-- Generator: Adobe Illustrator 19.0.0, SVG Export Plug-In . SVG Version: 6.00 Build 0)  -->
<svg version="1.1" id="Capa_1" xmlns="http://www.w3.org/2000/svg" xmlns:xlink="http://www.w3.org/1999/xlink" x="0px" y="0px"
	 viewBox="0 0 512 512" style="enable-background:new 0 0 512 512;" xml:space="preserve">
<g>
	<g>
		<path d="M447.615,166.543c-31.832-36.37-76.812-63.141-126.653-75.385C301.183,86.3,287.37,68.703,287.37,48.365v-8.981
			c0-10.858,8.834-19.692,19.692-19.692h8.015c5.437,0,9.846-4.408,9.846-9.846c0-5.438-4.409-9.846-9.846-9.846h-8.015
			c-18.318,0-33.755,12.571-38.138,29.538h-3.078V9.846C265.846,4.408,261.437,0,256,0c-5.437,0-9.846,4.408-9.846,9.846v19.692
			h-3.078C238.692,12.571,223.256,0,204.938,0h-8.015c-5.437,0-9.846,4.408-9.846,9.846c0,5.438,4.409,9.846,9.846,9.846h8.015
			c10.858,0,19.692,8.834,19.692,19.692v8.981c0,20.337-13.813,37.934-33.592,42.792c-49.841,12.244-94.821,39.015-126.653,75.385
			c-33.099,37.816-50.594,83.161-50.594,131.132c0,57.489,25.357,111.463,71.399,151.98C130.876,489.859,191.537,512,256,512
			s125.124-22.141,170.81-62.345c46.043-40.517,71.399-94.492,71.399-151.98C498.209,249.703,480.715,204.359,447.615,166.543z
			 M256,492.308c-122.696,0-222.517-87.312-222.517-194.633c0-86.867,66.721-163.926,162.253-187.392
			c28.326-6.958,48.193-31.99,48.581-61.051h23.367c0.388,29.061,20.255,54.093,48.581,61.051
			c95.531,23.466,162.253,100.525,162.253,187.392C478.517,404.996,378.696,492.308,256,492.308z"/>
	</g>
</g>
<g>
	<g>
		<path d="M391.001,177.281C354.88,145.502,306.935,128,256,128s-98.88,17.502-135.001,49.281
			c-36.478,32.093-56.567,74.867-56.567,120.442s20.089,88.35,56.567,120.442c36.122,31.779,84.065,49.281,135.001,49.281
			c50.935,0,98.88-17.502,135.001-49.281c36.478-32.093,56.567-74.867,56.567-120.442S427.479,209.374,391.001,177.281z
			 M256,447.754c-94.773,0-171.876-67.303-171.876-150.031S161.227,147.692,256,147.692s171.876,67.303,171.876,150.031
			S350.773,447.754,256,447.754z"/>
	</g>
</g>
<g>
	<g>
		<path d="M362.613,240.628c-3.051-4.503-9.176-5.676-13.674-2.623c-4.501,3.052-5.675,9.175-2.623,13.675
			c9.428,13.904,14.412,29.826,14.412,46.044c0,50.152-46.981,90.954-104.727,90.954s-104.727-40.801-104.727-90.954
			c0-50.152,46.98-90.955,104.726-90.955c19.267,0,38.101,4.588,54.463,13.268c4.808,2.549,10.766,0.719,13.313-4.084
			c2.548-4.804,0.72-10.764-4.083-13.312c-19.196-10.182-41.22-15.564-63.693-15.564c-68.605,0-124.419,49.635-124.419,110.646
			c0,61.011,55.814,110.646,124.419,110.646s124.419-49.635,124.419-110.646C380.419,277.549,374.262,257.806,362.613,240.628z"/>
	</g>
</g>
<g>
	<g>
		<path d="M344.427,226.826c-0.128-0.63-0.314-1.25-0.56-1.841c-0.246-0.601-0.552-1.172-0.907-1.703
			c-0.363-0.542-0.777-1.044-1.231-1.497c-0.453-0.453-0.955-0.866-1.497-1.221c-0.532-0.354-1.103-0.66-1.694-0.906
			c-0.601-0.246-1.221-0.433-1.841-0.561c-1.28-0.256-2.58-0.256-3.85,0c-0.63,0.128-1.25,0.315-1.841,0.561
			c-0.601,0.246-1.171,0.551-1.702,0.906c-0.543,0.354-1.045,0.768-1.498,1.221c-0.453,0.453-0.866,0.955-1.221,1.497
			c-0.354,0.532-0.66,1.103-0.906,1.703c-0.246,0.591-0.432,1.211-0.56,1.841c-0.129,0.63-0.197,1.28-0.197,1.92
			s0.068,1.29,0.197,1.92c0.128,0.63,0.314,1.25,0.56,1.851c0.246,0.591,0.552,1.162,0.906,1.694
			c0.354,0.542,0.768,1.044,1.221,1.497c0.453,0.453,0.955,0.866,1.498,1.221c0.532,0.364,1.102,0.66,1.702,0.906
			c0.592,0.246,1.211,0.443,1.841,0.561c0.63,0.128,1.28,0.197,1.92,0.197c0.639,0,1.29-0.069,1.93-0.197
			c0.62-0.118,1.241-0.315,1.841-0.561c0.591-0.246,1.162-0.542,1.694-0.906c0.542-0.354,1.044-0.768,1.497-1.221
			c0.454-0.453,0.867-0.955,1.231-1.497c0.354-0.532,0.661-1.103,0.907-1.694c0.246-0.601,0.432-1.221,0.56-1.851
			c0.128-0.63,0.187-1.28,0.187-1.92S344.554,227.456,344.427,226.826z"/>
	</g>
</g>
<g>
	<g>
		<path d="M256,246.154c-31.579,0-57.27,23.133-57.27,51.569c0,28.436,25.692,51.569,57.27,51.569s57.27-23.134,57.27-51.569
			C313.27,269.287,287.579,246.154,256,246.154z M256,329.6c-20.72,0-37.578-14.3-37.578-31.877S235.28,265.846,256,265.846
			s37.578,14.3,37.578,31.877S276.72,329.6,256,329.6z"/>
	</g>
</g>
<g>
</g>
<g>
</g>
<g>
</g>
<g>
</g>
<g>
</g>
<g>
</g>
<g>
</g>
<g>
</g>
<g>
</g>
<g>
</g>
<g>
</g>
<g>
</g>
<g>
</g>
<g>
</g>
<g>
</g>
</svg>
