<?xml version="1.0" encoding="iso-8859-1"?>
<!-- Generator: Adobe Illustrator 19.0.0, SVG Export Plug-In . SVG Version: 6.00 Build 0)  -->
<svg version="1.1" id="Layer_1" xmlns="http://www.w3.org/2000/svg" xmlns:xlink="http://www.w3.org/1999/xlink" x="0px" y="0px"
	 viewBox="0 0 511.999 511.999" style="enable-background:new 0 0 511.999 511.999;" xml:space="preserve">
<g>
	<g>
		<path d="M458.162,273.784c0-42.044-13.674-82.08-39.545-115.78c-25.293-32.947-59.942-57.013-100.199-69.597
			c-1.084-0.34-1.987-0.801-2.61-1.336c-8.23-7.06-13.25-17.478-13.772-28.583c-0.542-11.5,3.56-22.39,11.547-30.666l10.172-10.539
			c3.262-3.379,3.794-8.548,1.289-12.522c-2.504-3.973-7.398-5.722-11.854-4.237l-34.632,11.544
			c-20.702,6.901-36.436,23.506-42.092,44.432l-0.26,0.977c-0.71,2.698-1.684,5.335-2.896,7.839
			c-4.603,9.512-13.567,16.428-24.594,18.975c-43.353,10.015-82.651,34.111-110.657,67.85
			c-28.516,34.355-44.221,77.555-44.221,121.642c0,95.702,71.952,175.511,166.453,191.81l-15.839,15.839
			c-3.983,3.983-3.983,10.441,0,14.425c1.992,1.991,4.602,2.987,7.212,2.987c2.61,0,5.221-0.996,7.212-2.987l25.463-25.463v22.15
			c0,5.633,4.566,10.199,10.199,10.199c5.633,0,10.199-4.566,10.199-10.199v-22.15l38.618,38.618
			c1.992,1.992,4.602,2.987,7.212,2.987s5.221-0.995,7.212-2.987c3.983-3.983,3.983-10.441,0-14.425l-28.591-28.591
			C384.925,450.691,458.162,370.332,458.162,273.784z M256,448.24c-100.225,0-181.764-78.26-181.764-174.456
			c0-80.953,57.188-150.701,139.07-169.616c17.075-3.944,31.059-14.866,38.365-29.965c1.784-3.686,3.217-7.567,4.259-11.528
			l0.231-0.863c3.864-14.297,14.648-25.658,28.847-30.391l2.198-0.732c-4.097,8.865-6.022,18.655-5.546,28.76
			c0.786,16.693,8.392,32.404,20.866,43.106c2.746,2.356,6.044,4.146,9.802,5.322c0,0,0.001,0,0.002,0
			C387.356,131.327,437.763,198,437.763,273.784C437.763,369.98,356.225,448.24,256,448.24z"/>
	</g>
</g>
<g>
	<g>
		<path d="M341.467,143.593c-3.285-4.574-9.658-5.62-14.233-2.334c-4.574,3.286-5.62,9.659-2.334,14.234
			c22.185,30.886,34.909,74.654,34.909,120.079c0,42.326-10.717,82.484-30.177,113.079c-3.023,4.753-1.621,11.056,3.132,14.08
			c1.697,1.079,3.591,1.594,5.464,1.594c3.372,0,6.672-1.671,8.615-4.726c21.515-33.827,33.364-77.874,33.364-124.027
			C380.206,225.245,366.448,178.374,341.467,143.593z"/>
	</g>
</g>
<g>
	<g>
		<path d="M293.008,138.288c-1.373-5.462-6.915-8.777-12.378-7.406c-5.463,1.373-8.778,6.914-7.406,12.378
			c8.581,34.14,13.502,82.464,13.502,132.581c0,46.689-4.145,91.025-11.671,124.839c-1.224,5.498,2.242,10.948,7.74,12.172
			c0.747,0.166,1.491,0.246,2.225,0.246c4.674,0,8.889-3.233,9.946-7.986c7.84-35.227,12.157-81.135,12.157-129.271
			C307.125,223.359,302.111,174.508,293.008,138.288z"/>
	</g>
</g>
<g>
	<g>
		<path d="M225.522,130.882c-5.463-1.371-11.004,1.943-12.378,7.406c-9.104,36.22-14.117,85.071-14.117,137.553
			c0,48.135,4.317,94.045,12.157,129.271c1.058,4.753,5.272,7.986,9.946,7.986c0.733,0,1.479-0.08,2.225-0.246
			c5.498-1.224,8.964-6.673,7.74-12.172c-7.526-33.815-11.671-78.151-11.671-124.839c0-50.117,4.921-98.441,13.502-132.581
			C234.301,137.797,230.985,132.256,225.522,130.882z"/>
	</g>
</g>
<g>
	<g>
		<path d="M178.919,141.26c-4.575-3.287-10.947-2.242-14.234,2.334c-24.982,34.78-38.74,81.652-38.74,131.98
			c0,46.153,11.849,90.201,33.364,124.027c1.944,3.056,5.243,4.726,8.615,4.726c1.873,0,3.768-0.515,5.464-1.594
			c4.753-3.023,6.155-9.327,3.132-14.08c-19.461-30.595-30.177-70.755-30.177-113.079c0-45.425,12.723-89.193,34.909-120.079
			C184.539,150.918,183.495,144.546,178.919,141.26z"/>
	</g>
</g>
<g>
</g>
<g>
</g>
<g>
</g>
<g>
</g>
<g>
</g>
<g>
</g>
<g>
</g>
<g>
</g>
<g>
</g>
<g>
</g>
<g>
</g>
<g>
</g>
<g>
</g>
<g>
</g>
<g>
</g>
</svg>
