<?xml version="1.0" encoding="iso-8859-1"?>
<!-- Generator: Adobe Illustrator 19.0.0, SVG Export Plug-In . SVG Version: 6.00 Build 0)  -->
<svg version="1.1" id="Capa_1" xmlns="http://www.w3.org/2000/svg" xmlns:xlink="http://www.w3.org/1999/xlink" x="0px" y="0px"
	 viewBox="0 0 512.06 512.06" style="enable-background:new 0 0 512.06 512.06;" xml:space="preserve">
<g>
	<path style="fill:#6D5A61;" d="M295.578,473.335c0.088,1.148,0.177,2.207,0.177,3.354c-1.272,20.694-19.023,36.473-39.724,35.31
		c-20.701,1.163-38.452-14.616-39.724-35.31c0-1.148,0.088-2.207,0.177-3.354"/>
	<path style="fill:#944143;" d="M256.03,0h17.655c9.751,0,17.655,7.904,17.655,17.655v35.31c0,18.364,15.892,42.001,36.662,65.062
		c16.388,17.564,34.237,33.706,53.354,48.253c8.623,6.803,16.637,14.345,23.948,22.542c0.088,0.088,0.177,0.088,0.177,0.177
		l0.088,0.088c28.622,31.661,44.53,72.784,44.668,115.465c0,99.928-86.952,172.138-194.207,172.138S61.823,404.48,61.823,304.552
		c0.137-42.68,16.046-83.804,44.668-115.465l0.088-0.088c0-0.088,0.088-0.088,0.177-0.177c7.312-8.197,15.325-15.739,23.948-22.542
		c19.117-14.547,36.965-30.689,53.353-48.253c20.77-23.061,36.662-46.698,36.662-65.062v-35.31C220.72,7.904,228.624,0,238.375,0
		H256.03z"/>
	<g>
		<path style="fill:#6D5A61;" d="M256.03,52.966c-2.341,0.001-4.587-0.929-6.243-2.585c-1.656-1.656-2.585-3.901-2.585-6.243V35.31
			c-0.005-4.873-3.954-8.823-8.828-8.828c-4.875,0-8.828-3.952-8.828-8.828s3.952-8.828,8.828-8.828
			c14.619,0.016,26.467,11.863,26.483,26.483v8.828c0.001,2.341-0.929,4.587-2.585,6.243
			C260.617,52.036,258.372,52.966,256.03,52.966z"/>
		<path style="fill:#6D5A61;" d="M256.03,52.966c-2.341,0.001-4.587-0.929-6.243-2.585c-1.656-1.656-2.585-3.901-2.585-6.243V35.31
			c0.016-14.619,11.863-26.467,26.483-26.483c4.875,0,8.828,3.952,8.828,8.828s-3.952,8.828-8.828,8.828
			c-4.873,0.005-8.823,3.954-8.828,8.828v8.828c0.001,2.341-0.929,4.587-2.585,6.243C260.617,52.036,258.372,52.966,256.03,52.966z"
			/>
	</g>
	<g>
		<path style="fill:#D8625E;" d="M220.716,450.207c-2.077,0.001-4.087-0.732-5.677-2.069c-28.724-24.138-47.284-79.19-47.284-140.25
			c0-61.069,18.56-116.121,47.289-140.25c2.414-2.037,5.732-2.629,8.701-1.553c2.969,1.076,5.137,3.657,5.685,6.768
			c0.547,3.111-0.609,6.277-3.032,8.302c-24.513,20.595-40.987,71.526-40.987,126.733c0,55.198,16.474,106.129,40.991,126.733
			c2.841,2.387,3.886,6.297,2.614,9.784C227.743,447.891,224.427,450.21,220.716,450.207z"/>
		<path style="fill:#D8625E;" d="M176.573,438.172c-1.371,0-2.724-0.322-3.948-0.94c-45.858-23-75.491-76.129-75.491-135.362
			c0-59.241,29.634-112.371,75.491-135.362c2.818-1.416,6.178-1.22,8.813,0.513c2.635,1.734,4.144,4.742,3.958,7.891
			s-2.038,5.959-4.858,7.371c-39.944,20.026-65.75,66.966-65.75,119.586c0,52.612,25.81,99.552,65.75,119.586
			c3.66,1.834,5.577,5.944,4.633,9.927C184.226,435.367,180.667,438.177,176.573,438.172L176.573,438.172z"/>
		<path style="fill:#D8625E;" d="M291.345,450.207c-3.711,0.003-7.028-2.316-8.299-5.803c-1.272-3.487-0.227-7.396,2.614-9.783
			c24.517-20.603,40.991-71.535,40.991-126.733c0-55.207-16.474-106.138-40.987-126.733c-2.423-2.026-3.58-5.192-3.032-8.302
			c0.547-3.111,2.715-5.692,5.685-6.768c2.969-1.076,6.288-0.484,8.701,1.553c28.728,24.129,47.289,79.181,47.289,140.25
			c0,61.06-18.56,116.112-47.285,140.25C295.432,449.475,293.422,450.208,291.345,450.207L291.345,450.207z"/>
		<path style="fill:#D8625E;" d="M335.487,438.172c-4.093,0.005-7.653-2.805-8.598-6.788c-0.945-3.983,0.973-8.093,4.633-9.927
			c39.939-20.035,65.75-66.974,65.75-119.586c0-52.621-25.806-99.56-65.75-119.586c-2.82-1.412-4.672-4.223-4.858-7.371
			c-0.186-3.149,1.324-6.157,3.958-7.891c2.635-1.734,5.995-1.93,8.813-0.513c45.858,22.991,75.491,76.121,75.491,135.362
			c0,59.233-29.634,112.362-75.491,135.362C338.211,437.85,336.859,438.172,335.487,438.172L335.487,438.172z"/>
		<path style="fill:#D8625E;" d="M256.03,450.207c-2.341,0.001-4.587-0.929-6.243-2.585c-1.656-1.656-2.585-3.901-2.585-6.243
			V176.552c0-4.875,3.952-8.828,8.828-8.828s8.828,3.952,8.828,8.828v264.828c0.001,2.341-0.929,4.587-2.585,6.243
			C260.617,449.278,258.372,450.207,256.03,450.207z"/>
	</g>
</g>
<g>
</g>
<g>
</g>
<g>
</g>
<g>
</g>
<g>
</g>
<g>
</g>
<g>
</g>
<g>
</g>
<g>
</g>
<g>
</g>
<g>
</g>
<g>
</g>
<g>
</g>
<g>
</g>
<g>
</g>
</svg>
