<?xml version="1.0" encoding="iso-8859-1"?>
<!-- Generator: Adobe Illustrator 18.1.1, SVG Export Plug-In . SVG Version: 6.00 Build 0)  -->
<svg version="1.1" id="Capa_1" xmlns="http://www.w3.org/2000/svg" xmlns:xlink="http://www.w3.org/1999/xlink" x="0px" y="0px"
	 viewBox="0 0 454.74 454.74" style="enable-background:new 0 0 454.74 454.74;" xml:space="preserve">
<g>
	<g>
		<path style="fill:#010002;" d="M454.53,278.361c3.82-81.619-44.813-154.605-118.637-191.786c0,0-0.073-0.049-0.114-0.057
			c-6.812-3.43-13.827-6.568-21.053-9.364c-37.416-21.305-54.25-58.314-54.25-58.314L175.338,3.152l-0.098,2.065l0,0
			c0,0-18.533,54.209-59.022,80.961c-4.967,2.504-9.811,5.178-14.534,8.007l0,0C43.184,129.136,3.427,188.32,0.208,257.105
			c-5.349,114.247,93.121,188.242,218.577,194.11c5.259,0.252,10.502,0.374,15.688,0.374
			C352.882,451.589,449.409,387.82,454.53,278.361z M368.636,231.239c0,0,20.37,101.103-9.388,154.232
			c-18.452,12.047-39.789,20.72-62.387,26.239c48.95-87.976-28.897-206.71-36.66-216.562c34.945,67.54,1.219,185.421-11.242,223.511
			c-4.828,0.26-9.665,0.415-14.485,0.415c-4.674,0-9.437-0.114-14.16-0.333c-14.981-0.699-29.458-2.569-43.366-5.357
			c-25.703-35.522-1.788-176.959-1.788-176.959c-29.71,44.439-31.132,132.106-30.328,168.375
			c-19.988-6.828-38.009-16.054-53.551-27.345c-22.362-71.84,30.856-187.087,30.856-187.087
			c-57.9,51.706-71.605,105.379-73.377,139.852c-11.689-21.338-17.273-45.439-16.054-71.596
			c2.609-55.795,33.831-105.566,85.667-136.536c4.137-2.471,8.34-4.788,12.485-6.877l1.699-0.854l1.585-1.049
			c30.718-20.289,50.519-51.584,61.452-73.36l44.041,8.12c10.088,15.948,29.108,40.318,59.03,57.347l2.097,1.195l2.252,0.87
			c5.755,2.227,11.591,4.804,17.346,7.673l0.927,0.463c65.281,32.88,103.891,94.657,100.778,161.222
			c-1.488,31.888-12.331,58.022-29.312,78.823C394.899,320.524,394.322,259.819,368.636,231.239z"/>
		<path style="fill:#010002;" d="M191.051,85.673c-3.016,9.413-8.779,17.485-14.42,25.491c-6.056,8.592,8.047,16.696,14.038,8.202
			c6.511-9.234,12.591-18.525,16.062-29.377C209.933,79.983,194.229,75.732,191.051,85.673z"/>
		<path style="fill:#010002;" d="M280.213,111.302c-17.054-8.104-29.832-23.524-36.904-40.862c-3.91-9.567-19.639-5.389-15.68,4.324
			c8.624,21.134,23.37,40.594,44.382,50.584C281.424,129.811,289.675,115.797,280.213,111.302z"/>
	</g>
</g>
<g>
</g>
<g>
</g>
<g>
</g>
<g>
</g>
<g>
</g>
<g>
</g>
<g>
</g>
<g>
</g>
<g>
</g>
<g>
</g>
<g>
</g>
<g>
</g>
<g>
</g>
<g>
</g>
<g>
</g>
</svg>
